<svg width="800" height="500" xmlns="http://www.w3.org/2000/svg">
  <defs>
    <marker id="arrowhead5" markerWidth="10" markerHeight="7" refX="9" refY="3.5" orient="auto">
      <polygon points="0 0, 10 3.5, 0 7" fill="#333" />
    </marker>
  </defs>
  
  <!-- 会话操作流程 -->
  <rect x="50" y="50" width="100" height="40" rx="5" fill="#e3f2fd" stroke="#1976d2" stroke-width="2"/>
  <text x="100" y="75" text-anchor="middle" font-family="Arial" font-size="11">启动应用</text>
  
  <rect x="200" y="50" width="100" height="40" rx="5" fill="#e8f5e8" stroke="#388e3c" stroke-width="2"/>
  <text x="250" y="75" text-anchor="middle" font-family="Arial" font-size="11">加载会话列表</text>
  
  <rect x="350" y="50" width="100" height="40" rx="5" fill="#fff3e0" stroke="#f57c00" stroke-width="2"/>
  <text x="400" y="75" text-anchor="middle" font-family="Arial" font-size="11">显示界面</text>
  
  <!-- 用户操作分支 -->
  <rect x="50" y="150" width="100" height="40" rx="5" fill="#f3e5f5" stroke="#7b1fa2" stroke-width="2"/>
  <text x="100" y="175" text-anchor="middle" font-family="Arial" font-size="11">新建会话</text>
  
  <rect x="200" y="150" width="100" height="40" rx="5" fill="#fce4ec" stroke="#c2185b" stroke-width="2"/>
  <text x="250" y="175" text-anchor="middle" font-family="Arial" font-size="11">选择会话</text>
  
  <rect x="350" y="150" width="100" height="40" rx="5" fill="#e0f2f1" stroke="#00695c" stroke-width="2"/>
  <text x="400" y="175" text-anchor="middle" font-family="Arial" font-size="11">删除会话</text>
  
  <rect x="500" y="150" width="100" height="40" rx="5" fill="#fff8e1" stroke="#ff8f00" stroke-width="2"/>
  <text x="550" y="175" text-anchor="middle" font-family="Arial" font-size="11">重命名会话</text>
  
  <!-- 数据库操作 -->
  <rect x="150" y="250" width="100" height="40" rx="5" fill="#ffebee" stroke="#d32f2f" stroke-width="2"/>
  <text x="200" y="275" text-anchor="middle" font-family="Arial" font-size="11">数据库操作</text>
  
  <rect x="300" y="250" width="100" height="40" rx="5" fill="#e1f5fe" stroke="#0277bd" stroke-width="2"/>
  <text x="350" y="275" text-anchor="middle" font-family="Arial" font-size="11">消息存储</text>
  
  <!-- 会话管理 -->
  <rect x="200" y="350" width="120" height="40" rx="5" fill="#f1f8e9" stroke="#558b2f" stroke-width="2"/>
  <text x="260" y="375" text-anchor="middle" font-family="Arial" font-size="11">会话状态更新</text>
  
  <!-- 连接线 -->
  <line x1="150" y1="70" x2="200" y2="70" stroke="#333" stroke-width="2" marker-end="url(#arrowhead5)"/>
  <line x1="300" y1="70" x2="350" y2="70" stroke="#333" stroke-width="2" marker-end="url(#arrowhead5)"/>
  
  <!-- 从显示界面到各操作的连接 -->
  <line x1="400" y1="90" x2="100" y2="150" stroke="#333" stroke-width="1" marker-end="url(#arrowhead5)"/>
  <line x1="400" y1="90" x2="250" y2="150" stroke="#333" stroke-width="1" marker-end="url(#arrowhead5)"/>
  <line x1="400" y1="90" x2="400" y2="150" stroke="#333" stroke-width="1" marker-end="url(#arrowhead5)"/>
  <line x1="400" y1="90" x2="550" y2="150" stroke="#333" stroke-width="1" marker-end="url(#arrowhead5)"/>
  
  <!-- 从操作到数据库的连接 -->
  <line x1="100" y1="190" x2="200" y2="250" stroke="#333" stroke-width="1" marker-end="url(#arrowhead5)"/>
  <line x1="250" y1="190" x2="200" y2="250" stroke="#333" stroke-width="1" marker-end="url(#arrowhead5)"/>
  <line x1="400" y1="190" x2="200" y2="250" stroke="#333" stroke-width="1" marker-end="url(#arrowhead5)"/>
  <line x1="550" y1="190" x2="200" y2="250" stroke="#333" stroke-width="1" marker-end="url(#arrowhead5)"/>
  
  <line x1="250" y1="290" x2="350" y2="290" stroke="#333" stroke-width="2" marker-end="url(#arrowhead5)"/>
  <line x1="350" y1="290" x2="260" y2="350" stroke="#333" stroke-width="2" marker-end="url(#arrowhead5)"/>
  
  <!-- 标签 -->
  <text x="250" y="25" font-family="Arial" font-size="14" fill="#666" font-weight="bold">会话管理流程</text>
  <text x="100" y="125" font-family="Arial" font-size="12" fill="#666">用户操作</text>
  <text x="250" y="225" font-family="Arial" font-size="12" fill="#666">数据持久化</text>
</svg>