<svg width="700" height="450" xmlns="http://www.w3.org/2000/svg">
  <defs>
    <marker id="arrowhead2" markerWidth="10" markerHeight="7" refX="9" refY="3.5" orient="auto">
      <polygon points="0 0, 10 3.5, 0 7" fill="#333" />
    </marker>
  </defs>
  
  <!-- 动画触发事件 -->
  <rect x="50" y="50" width="120" height="40" rx="5" fill="#e3f2fd" stroke="#1976d2" stroke-width="2"/>
  <text x="110" y="75" text-anchor="middle" font-family="Arial" font-size="11">窗体启动事件</text>
  
  <rect x="50" y="120" width="120" height="40" rx="5" fill="#e8f5e8" stroke="#388e3c" stroke-width="2"/>
  <text x="110" y="145" text-anchor="middle" font-family="Arial" font-size="11">用户交互事件</text>
  
  <rect x="50" y="190" width="120" height="40" rx="5" fill="#fff3e0" stroke="#f57c00" stroke-width="2"/>
  <text x="110" y="215" text-anchor="middle" font-family="Arial" font-size="11">消息显示事件</text>
  
  <!-- 动画处理器 -->
  <rect x="250" y="120" width="120" height="40" rx="5" fill="#f3e5f5" stroke="#7b1fa2" stroke-width="2"/>
  <text x="310" y="145" text-anchor="middle" font-family="Arial" font-size="11">动画处理器</text>
  
  <!-- 具体动画效果 -->
  <rect x="450" y="30" width="100" height="35" rx="5" fill="#fce4ec" stroke="#c2185b" stroke-width="2"/>
  <text x="500" y="52" text-anchor="middle" font-family="Arial" font-size="10">弹出动画</text>
  
  <rect x="450" y="80" width="100" height="35" rx="5" fill="#e0f2f1" stroke="#00695c" stroke-width="2"/>
  <text x="500" y="102" text-anchor="middle" font-family="Arial" font-size="10">放大动画</text>
  
  <rect x="450" y="130" width="100" height="35" rx="5" fill="#fff8e1" stroke="#ff8f00" stroke-width="2"/>
  <text x="500" y="152" text-anchor="middle" font-family="Arial" font-size="10">气泡动画</text>
  
  <rect x="450" y="180" width="100" height="35" rx="5" fill="#ffebee" stroke="#d32f2f" stroke-width="2"/>
  <text x="500" y="202" text-anchor="middle" font-family="Arial" font-size="10">过渡动画</text>
  
  <rect x="450" y="230" width="100" height="35" rx="5" fill="#e8eaf6" stroke="#3f51b5" stroke-width="2"/>
  <text x="500" y="252" text-anchor="middle" font-family="Arial" font-size="10">反馈动画</text>
  
  <!-- 渲染输出 -->
  <rect x="600" y="120" width="80" height="40" rx="5" fill="#e1f5fe" stroke="#0277bd" stroke-width="2"/>
  <text x="640" y="145" text-anchor="middle" font-family="Arial" font-size="11">视觉渲染</text>
  
  <!-- 连接线 -->
  <line x1="170" y1="70" x2="250" y2="140" stroke="#333" stroke-width="2" marker-end="url(#arrowhead2)"/>
  <line x1="170" y1="140" x2="250" y2="140" stroke="#333" stroke-width="2" marker-end="url(#arrowhead2)"/>
  <line x1="170" y1="210" x2="250" y2="140" stroke="#333" stroke-width="2" marker-end="url(#arrowhead2)"/>
  
  <line x1="370" y1="130" x2="450" y2="47" stroke="#333" stroke-width="2" marker-end="url(#arrowhead2)"/>
  <line x1="370" y1="135" x2="450" y2="97" stroke="#333" stroke-width="2" marker-end="url(#arrowhead2)"/>
  <line x1="370" y1="140" x2="450" y2="147" stroke="#333" stroke-width="2" marker-end="url(#arrowhead2)"/>
  <line x1="370" y1="145" x2="450" y2="197" stroke="#333" stroke-width="2" marker-end="url(#arrowhead2)"/>
  <line x1="370" y1="150" x2="450" y2="247" stroke="#333" stroke-width="2" marker-end="url(#arrowhead2)"/>
  
  <line x1="550" y1="140" x2="600" y2="140" stroke="#333" stroke-width="2" marker-end="url(#arrowhead2)"/>
  
  <!-- 标签 -->
  <text x="200" y="25" font-family="Arial" font-size="12" fill="#666">事件触发</text>
  <text x="300" y="25" font-family="Arial" font-size="12" fill="#666">动画调度</text>
  <text x="480" y="25" font-family="Arial" font-size="12" fill="#666">动画执行</text>
  <text x="620" y="25" font-family="Arial" font-size="12" fill="#666">渲染</text>
</svg>