<svg width="800" height="500" xmlns="http://www.w3.org/2000/svg">
  <defs>
    <marker id="arrowhead3" markerWidth="10" markerHeight="7" refX="9" refY="3.5" orient="auto">
      <polygon points="0 0, 10 3.5, 0 7" fill="#333" />
    </marker>
  </defs>
  
  <!-- 输入方式 -->
  <rect x="50" y="50" width="100" height="40" rx="5" fill="#e3f2fd" stroke="#1976d2" stroke-width="2"/>
  <text x="100" y="75" text-anchor="middle" font-family="Arial" font-size="11">语音输入</text>
  
  <rect x="50" y="110" width="100" height="40" rx="5" fill="#e8f5e8" stroke="#388e3c" stroke-width="2"/>
  <text x="100" y="135" text-anchor="middle" font-family="Arial" font-size="11">文字输入</text>
  
  <rect x="50" y="170" width="100" height="40" rx="5" fill="#fff3e0" stroke="#f57c00" stroke-width="2"/>
  <text x="100" y="195" text-anchor="middle" font-family="Arial" font-size="11">文件拖拽</text>
  
  <!-- 处理层 -->
  <rect x="200" y="80" width="100" height="40" rx="5" fill="#f3e5f5" stroke="#7b1fa2" stroke-width="2"/>
  <text x="250" y="105" text-anchor="middle" font-family="Arial" font-size="11">TTS转换</text>
  
  <rect x="200" y="140" width="100" height="40" rx="5" fill="#fce4ec" stroke="#c2185b" stroke-width="2"/>
  <text x="250" y="165" text-anchor="middle" font-family="Arial" font-size="11">文本处理</text>
  
  <!-- 统一输入 -->
  <rect x="350" y="110" width="100" height="40" rx="5" fill="#e0f2f1" stroke="#00695c" stroke-width="2"/>
  <text x="400" y="135" text-anchor="middle" font-family="Arial" font-size="11">统一文本</text>
  
  <!-- AI处理 -->
  <rect x="500" y="110" width="100" height="40" rx="5" fill="#fff8e1" stroke="#ff8f00" stroke-width="2"/>
  <text x="550" y="135" text-anchor="middle" font-family="Arial" font-size="11">AI处理</text>
  
  <!-- 输出渲染 -->
  <rect x="650" y="50" width="100" height="35" rx="5" fill="#ffebee" stroke="#d32f2f" stroke-width="2"/>
  <text x="700" y="72" text-anchor="middle" font-family="Arial" font-size="10">Markdown</text>
  
  <rect x="650" y="100" width="100" height="35" rx="5" fill="#e8eaf6" stroke="#3f51b5" stroke-width="2"/>
  <text x="700" y="122" text-anchor="middle" font-family="Arial" font-size="10">SVG图形</text>
  
  <rect x="650" y="150" width="100" height="35" rx="5" fill="#e1f5fe" stroke="#0277bd" stroke-width="2"/>
  <text x="700" y="172" text-anchor="middle" font-family="Arial" font-size="10">Mermaid</text>
  
  <rect x="650" y="200" width="100" height="35" rx="5" fill="#f1f8e9" stroke="#689f38" stroke-width="2"/>
  <text x="700" y="222" text-anchor="middle" font-family="Arial" font-size="10">文件引用</text>
  
  <!-- 连接线 -->
  <line x1="150" y1="70" x2="200" y2="100" stroke="#333" stroke-width="2" marker-end="url(#arrowhead3)"/>
  <line x1="150" y1="130" x2="200" y2="160" stroke="#333" stroke-width="2" marker-end="url(#arrowhead3)"/>
  <line x1="150" y1="190" x2="200" y2="160" stroke="#333" stroke-width="2" marker-end="url(#arrowhead3)"/>
  
  <line x1="300" y1="100" x2="350" y2="130" stroke="#333" stroke-width="2" marker-end="url(#arrowhead3)"/>
  <line x1="300" y1="160" x2="350" y2="130" stroke="#333" stroke-width="2" marker-end="url(#arrowhead3)"/>
  
  <line x1="450" y1="130" x2="500" y2="130" stroke="#333" stroke-width="2" marker-end="url(#arrowhead3)"/>
  
  <line x1="600" y1="120" x2="650" y2="67" stroke="#333" stroke-width="2" marker-end="url(#arrowhead3)"/>
  <line x1="600" y1="125" x2="650" y2="117" stroke="#333" stroke-width="2" marker-end="url(#arrowhead3)"/>
  <line x1="600" y1="130" x2="650" y2="167" stroke="#333" stroke-width="2" marker-end="url(#arrowhead3)"/>
  <line x1="600" y1="135" x2="650" y2="217" stroke="#333" stroke-width="2" marker-end="url(#arrowhead3)"/>
  
  <!-- 标签 -->
  <text x="100" y="25" font-family="Arial" font-size="12" fill="#666">多模态输入</text>
  <text x="250" y="25" font-family="Arial" font-size="12" fill="#666">预处理</text>
  <text x="400" y="25" font-family="Arial" font-size="12" fill="#666">统一处理</text>
  <text x="550" y="25" font-family="Arial" font-size="12" fill="#666">AI响应</text>
  <text x="700" y="25" font-family="Arial" font-size="12" fill="#666">富文本输出</text>
  
  <!-- 语音录制流程 -->
  <rect x="50" y="280" width="80" height="30" rx="3" fill="#e3f2fd" stroke="#1976d2" stroke-width="1"/>
  <text x="90" y="300" text-anchor="middle" font-family="Arial" font-size="9">按下麦克风</text>
  
  <rect x="150" y="280" width="80" height="30" rx="3" fill="#e8f5e8" stroke="#388e3c" stroke-width="1"/>
  <text x="190" y="300" text-anchor="middle" font-family="Arial" font-size="9">录音采集</text>
  
  <rect x="250" y="280" width="80" height="30" rx="3" fill="#fff3e0" stroke="#f57c00" stroke-width="1"/>
  <text x="290" y="300" text-anchor="middle" font-family="Arial" font-size="9">松手提交</text>
  
  <rect x="350" y="280" width="80" height="30" rx="3" fill="#f3e5f5" stroke="#7b1fa2" stroke-width="1"/>
  <text x="390" y="300" text-anchor="middle" font-family="Arial" font-size="9">TTS转文本</text>
  
  <line x1="130" y1="295" x2="150" y2="295" stroke="#333" stroke-width="1" marker-end="url(#arrowhead3)"/>
  <line x1="230" y1="295" x2="250" y2="295" stroke="#333" stroke-width="1" marker-end="url(#arrowhead3)"/>
  <line x1="330" y1="295" x2="350" y2="295" stroke="#333" stroke-width="1" marker-end="url(#arrowhead3)"/>
</svg>