<svg width="700" height="500" xmlns="http://www.w3.org/2000/svg">
  <defs>
    <marker id="arrowhead3" markerWidth="10" markerHeight="7" refX="9" refY="3.5" orient="auto">
      <polygon points="0 0, 10 3.5, 0 7" fill="#333" />
    </marker>
  </defs>
  
  <!-- 流程节点 -->
  <rect x="50" y="50" width="120" height="40" rx="5" fill="#e3f2fd" stroke="#1976d2" stroke-width="2"/>
  <text x="110" y="75" text-anchor="middle" font-family="Arial" font-size="11">接收操作指令</text>
  
  <rect x="220" y="50" width="120" height="40" rx="5" fill="#fff3e0" stroke="#f57c00" stroke-width="2"/>
  <text x="280" y="75" text-anchor="middle" font-family="Arial" font-size="11">最小化GoManus</text>
  
  <rect x="390" y="50" width="120" height="40" rx="5" fill="#e8f5e8" stroke="#388e3c" stroke-width="2"/>
  <text x="450" y="75" text-anchor="middle" font-family="Arial" font-size="11">桌面操作执行</text>
  
  <!-- 恢复GoManus移到后面 -->
  
  <!-- 具体操作类型 -->
  <rect x="50" y="150" width="100" height="35" rx="5" fill="#fce4ec" stroke="#c2185b" stroke-width="2"/>
  <text x="100" y="172" text-anchor="middle" font-family="Arial" font-size="10">鼠标操作</text>
  
  <rect x="170" y="150" width="100" height="35" rx="5" fill="#e0f2f1" stroke="#00695c" stroke-width="2"/>
  <text x="220" y="172" text-anchor="middle" font-family="Arial" font-size="10">键盘输入</text>
  
  <rect x="290" y="150" width="100" height="35" rx="5" fill="#fff8e1" stroke="#ff8f00" stroke-width="2"/>
  <text x="340" y="172" text-anchor="middle" font-family="Arial" font-size="10">屏幕截图</text>
  
  <rect x="410" y="150" width="100" height="35" rx="5" fill="#ffebee" stroke="#d32f2f" stroke-width="2"/>
  <text x="460" y="172" text-anchor="middle" font-family="Arial" font-size="10">窗口操作</text>
  
  <rect x="530" y="150" width="100" height="35" rx="5" fill="#e8eaf6" stroke="#3f51b5" stroke-width="2"/>
  <text x="580" y="172" text-anchor="middle" font-family="Arial" font-size="10">文件操作</text>
  
  <!-- 监控和反馈 -->
  <rect x="220" y="250" width="120" height="40" rx="5" fill="#e1f5fe" stroke="#0277bd" stroke-width="2"/>
  <text x="280" y="275" text-anchor="middle" font-family="Arial" font-size="11">操作监控</text>
  
  <rect x="390" y="250" width="120" height="40" rx="5" fill="#f1f8e9" stroke="#689f38" stroke-width="2"/>
  <text x="450" y="275" text-anchor="middle" font-family="Arial" font-size="11">结果反馈</text>
  
  <!-- 恢复GoManus -->
  <rect x="560" y="250" width="120" height="40" rx="5" fill="#f3e5f5" stroke="#7b1fa2" stroke-width="2"/>
  <text x="620" y="275" text-anchor="middle" font-family="Arial" font-size="11">恢复GoManus</text>
  
  <!-- 连接线 -->
  <line x1="170" y1="70" x2="220" y2="70" stroke="#333" stroke-width="2" marker-end="url(#arrowhead3)"/>
  <line x1="340" y1="70" x2="390" y2="70" stroke="#333" stroke-width="2" marker-end="url(#arrowhead3)"/>
  <!-- 移除原来的连接线 -->
  
  <line x1="450" y1="90" x2="100" y2="150" stroke="#333" stroke-width="2" marker-end="url(#arrowhead3)"/>
  <line x1="450" y1="90" x2="220" y2="150" stroke="#333" stroke-width="2" marker-end="url(#arrowhead3)"/>
  <line x1="450" y1="90" x2="340" y2="150" stroke="#333" stroke-width="2" marker-end="url(#arrowhead3)"/>
  <line x1="450" y1="90" x2="460" y2="150" stroke="#333" stroke-width="2" marker-end="url(#arrowhead3)"/>
  <line x1="450" y1="90" x2="580" y2="150" stroke="#333" stroke-width="2" marker-end="url(#arrowhead3)"/>
  
  <line x1="340" y1="185" x2="280" y2="250" stroke="#333" stroke-width="2" marker-end="url(#arrowhead3)"/>
  <line x1="400" y1="185" x2="450" y2="250" stroke="#333" stroke-width="2" marker-end="url(#arrowhead3)"/>
  
  <!-- 新的连接线：结果反馈到恢复GoManus -->
  <line x1="510" y1="270" x2="560" y2="270" stroke="#333" stroke-width="2" marker-end="url(#arrowhead3)"/>
  
  <!-- 标签 -->
  <text x="350" y="25" font-family="Arial" font-size="14" fill="#666" font-weight="bold">桌面自动化操作流程</text>
  <text x="320" y="130" font-family="Arial" font-size="12" fill="#666">支持的操作类型</text>
  <text x="320" y="230" font-family="Arial" font-size="12" fill="#666">监控与反馈</text>
</svg>