<svg width="600" height="400" xmlns="http://www.w3.org/2000/svg">
  <!-- 配置文件加载 -->
  <rect x="50" y="50" width="120" height="60" rx="10" fill="#e1f5fe" stroke="#0277bd" stroke-width="2"/>
  <text x="110" y="85" text-anchor="middle" font-size="12" fill="#0277bd">配置文件加载</text>
  
  <!-- 参数验证 -->
  <rect x="220" y="50" width="120" height="60" rx="10" fill="#f3e5f5" stroke="#7b1fa2" stroke-width="2"/>
  <text x="280" y="85" text-anchor="middle" font-size="12" fill="#7b1fa2">参数验证</text>
  
  <!-- 默认值设置 -->
  <rect x="390" y="50" width="120" height="60" rx="10" fill="#e8f5e8" stroke="#388e3c" stroke-width="2"/>
  <text x="450" y="85" text-anchor="middle" font-size="12" fill="#388e3c">默认值设置</text>
  
  <!-- 配置应用 -->
  <rect x="220" y="170" width="120" height="60" rx="10" fill="#fff3e0" stroke="#f57c00" stroke-width="2"/>
  <text x="280" y="205" text-anchor="middle" font-size="12" fill="#f57c00">配置应用</text>
  
  <!-- 运行时更新 -->
  <rect x="220" y="290" width="120" height="60" rx="10" fill="#fce4ec" stroke="#c2185b" stroke-width="2"/>
  <text x="280" y="325" text-anchor="middle" font-size="12" fill="#c2185b">运行时更新</text>
  
  <!-- 箭头 -->
  <path d="M170 80 L220 80" stroke="#666" stroke-width="2" marker-end="url(#arrowhead)"/>
  <path d="M340 80 L390 80" stroke="#666" stroke-width="2" marker-end="url(#arrowhead)"/>
  <path d="M450 110 L450 140 L280 140 L280 170" stroke="#666" stroke-width="2" marker-end="url(#arrowhead)"/>
  <path d="M280 230 L280 290" stroke="#666" stroke-width="2" marker-end="url(#arrowhead)"/>
  
  <!-- 箭头标记 -->
  <defs>
    <marker id="arrowhead" markerWidth="10" markerHeight="7" refX="9" refY="3.5" orient="auto">
      <polygon points="0 0, 10 3.5, 0 7" fill="#666"/>
    </marker>
  </defs>
</svg>